<mxfile host="app.diagrams.net" modified="2024-02-04T09:55:42.768Z" agent="Mozilla/5.0 (X11; Linux x86_64) AppleWebKit/537.36 (KHTML, like Gecko) Chrome/121.0.0.0 Safari/537.36" etag="tAnAD73Xc80AmQavumuM" version="23.0.2" type="github">
  <diagram name="第 1 页" id="jPMbqr1b4v_mBZRNPlT9">
    <mxGraphModel dx="2514" dy="878" grid="1" gridSize="10" guides="1" tooltips="1" connect="1" arrows="1" fold="1" page="1" pageScale="1" pageWidth="827" pageHeight="1169" math="0" shadow="0">
      <root>
        <mxCell id="0" />
        <mxCell id="1" parent="0" />
        <mxCell id="jqnuNvzaE54T31BsbfV6-14" value="SERVER" style="rounded=0;fontStyle=1;labelPosition=left;verticalLabelPosition=middle;align=right;verticalAlign=middle;whiteSpace=wrap;html=1;spacing=0;spacingLeft=0;spacingRight=-60;" vertex="1" parent="1">
          <mxGeometry x="-90" y="240" width="690" height="160" as="geometry" />
        </mxCell>
        <mxCell id="jqnuNvzaE54T31BsbfV6-10" value="RSU" style="rounded=0;fontStyle=1;labelPosition=right;verticalLabelPosition=middle;align=left;verticalAlign=middle;whiteSpace=wrap;html=1;spacing=-35;spacingLeft=0;" vertex="1" parent="1">
          <mxGeometry x="380" y="470" width="220" height="450" as="geometry" />
        </mxCell>
        <mxCell id="jqnuNvzaE54T31BsbfV6-11" value="" style="group" vertex="1" connectable="0" parent="1">
          <mxGeometry x="420" y="510" width="120" height="120" as="geometry" />
        </mxCell>
        <mxCell id="jqnuNvzaE54T31BsbfV6-4" value="&lt;b&gt;Root &lt;br&gt;CA Certificate&lt;/b&gt;" style="rounded=0;whiteSpace=wrap;html=1;" vertex="1" parent="jqnuNvzaE54T31BsbfV6-11">
          <mxGeometry width="120" height="60" as="geometry" />
        </mxCell>
        <mxCell id="jqnuNvzaE54T31BsbfV6-5" value="Trusted Signature" style="rounded=0;whiteSpace=wrap;html=1;" vertex="1" parent="jqnuNvzaE54T31BsbfV6-11">
          <mxGeometry y="90" width="120" height="30" as="geometry" />
        </mxCell>
        <mxCell id="jqnuNvzaE54T31BsbfV6-6" value="RootCA.PK" style="rounded=0;whiteSpace=wrap;html=1;" vertex="1" parent="jqnuNvzaE54T31BsbfV6-11">
          <mxGeometry y="60" width="120" height="30" as="geometry" />
        </mxCell>
        <mxCell id="jqnuNvzaE54T31BsbfV6-7" value="" style="endArrow=classic;html=1;rounded=0;exitX=1;exitY=0.5;exitDx=0;exitDy=0;entryX=1;entryY=0.5;entryDx=0;entryDy=0;edgeStyle=orthogonalEdgeStyle;" edge="1" parent="1" source="jqnuNvzaE54T31BsbfV6-3" target="jqnuNvzaE54T31BsbfV6-6">
          <mxGeometry width="50" height="50" relative="1" as="geometry">
            <mxPoint x="370" y="440" as="sourcePoint" />
            <mxPoint x="210" y="420" as="targetPoint" />
            <Array as="points">
              <mxPoint x="580" y="365" />
              <mxPoint x="580" y="585" />
            </Array>
          </mxGeometry>
        </mxCell>
        <mxCell id="jqnuNvzaE54T31BsbfV6-8" value="Embed And Sign" style="edgeLabel;html=1;align=center;verticalAlign=middle;resizable=0;points=[];" vertex="1" connectable="0" parent="jqnuNvzaE54T31BsbfV6-7">
          <mxGeometry x="-0.0207" y="2" relative="1" as="geometry">
            <mxPoint x="-2" y="-15" as="offset" />
          </mxGeometry>
        </mxCell>
        <mxCell id="jqnuNvzaE54T31BsbfV6-17" value="RC" style="rounded=0;fontStyle=1;labelPosition=left;verticalLabelPosition=middle;align=right;verticalAlign=middle;whiteSpace=wrap;html=1;spacing=-35;spacingRight=0;" vertex="1" parent="1">
          <mxGeometry x="-90" y="470" width="350" height="450" as="geometry" />
        </mxCell>
        <mxCell id="jqnuNvzaE54T31BsbfV6-18" value="" style="group" vertex="1" connectable="0" parent="1">
          <mxGeometry x="90" y="630" width="120" height="120" as="geometry" />
        </mxCell>
        <mxCell id="jqnuNvzaE54T31BsbfV6-19" value="&lt;b&gt;Intermediate&lt;/b&gt;&lt;br&gt;&lt;b&gt;CA Certificate&lt;/b&gt;" style="rounded=0;whiteSpace=wrap;html=1;" vertex="1" parent="jqnuNvzaE54T31BsbfV6-18">
          <mxGeometry width="120" height="60" as="geometry" />
        </mxCell>
        <mxCell id="jqnuNvzaE54T31BsbfV6-20" value="Root Signature" style="rounded=0;whiteSpace=wrap;html=1;" vertex="1" parent="jqnuNvzaE54T31BsbfV6-18">
          <mxGeometry y="90" width="120" height="30" as="geometry" />
        </mxCell>
        <mxCell id="jqnuNvzaE54T31BsbfV6-21" value="ICA.PK" style="rounded=0;whiteSpace=wrap;html=1;" vertex="1" parent="jqnuNvzaE54T31BsbfV6-18">
          <mxGeometry y="60" width="120" height="30" as="geometry" />
        </mxCell>
        <mxCell id="jqnuNvzaE54T31BsbfV6-22" value="" style="endArrow=classic;html=1;rounded=0;exitX=0;exitY=0.5;exitDx=0;exitDy=0;entryX=1;entryY=0.5;entryDx=0;entryDy=0;edgeStyle=orthogonalEdgeStyle;" edge="1" parent="1" source="jqnuNvzaE54T31BsbfV6-2" target="jqnuNvzaE54T31BsbfV6-20">
          <mxGeometry width="50" height="50" relative="1" as="geometry">
            <mxPoint x="574" y="365" as="sourcePoint" />
            <mxPoint x="254" y="855" as="targetPoint" />
            <Array as="points">
              <mxPoint x="320" y="335" />
              <mxPoint x="320" y="735" />
            </Array>
          </mxGeometry>
        </mxCell>
        <mxCell id="jqnuNvzaE54T31BsbfV6-23" value="Sign" style="edgeLabel;html=1;align=center;verticalAlign=middle;resizable=0;points=[];" vertex="1" connectable="0" parent="jqnuNvzaE54T31BsbfV6-22">
          <mxGeometry x="-0.0207" y="2" relative="1" as="geometry">
            <mxPoint x="-2" y="-128" as="offset" />
          </mxGeometry>
        </mxCell>
        <mxCell id="jqnuNvzaE54T31BsbfV6-24" value="" style="group" vertex="1" connectable="0" parent="1">
          <mxGeometry x="90" y="490" width="120" height="120" as="geometry" />
        </mxCell>
        <mxCell id="jqnuNvzaE54T31BsbfV6-25" value="&lt;b&gt;Root &lt;br&gt;CA Certificate&lt;/b&gt;" style="rounded=0;whiteSpace=wrap;html=1;" vertex="1" parent="jqnuNvzaE54T31BsbfV6-24">
          <mxGeometry width="120" height="60" as="geometry" />
        </mxCell>
        <mxCell id="jqnuNvzaE54T31BsbfV6-26" value="Trusted Signature" style="rounded=0;whiteSpace=wrap;html=1;" vertex="1" parent="jqnuNvzaE54T31BsbfV6-24">
          <mxGeometry y="90" width="120" height="30" as="geometry" />
        </mxCell>
        <mxCell id="jqnuNvzaE54T31BsbfV6-27" value="RootCA.PK" style="rounded=0;whiteSpace=wrap;html=1;" vertex="1" parent="jqnuNvzaE54T31BsbfV6-24">
          <mxGeometry y="60" width="120" height="30" as="geometry" />
        </mxCell>
        <mxCell id="jqnuNvzaE54T31BsbfV6-38" value="" style="group" vertex="1" connectable="0" parent="1">
          <mxGeometry x="390" y="260" width="120" height="120" as="geometry" />
        </mxCell>
        <mxCell id="jqnuNvzaE54T31BsbfV6-1" value="&lt;b&gt;Root CA&lt;/b&gt;" style="rounded=0;whiteSpace=wrap;html=1;" vertex="1" parent="jqnuNvzaE54T31BsbfV6-38">
          <mxGeometry width="120" height="60" as="geometry" />
        </mxCell>
        <mxCell id="jqnuNvzaE54T31BsbfV6-2" value="RootCA.SK" style="rounded=0;whiteSpace=wrap;html=1;" vertex="1" parent="jqnuNvzaE54T31BsbfV6-38">
          <mxGeometry y="60" width="120" height="30" as="geometry" />
        </mxCell>
        <mxCell id="jqnuNvzaE54T31BsbfV6-3" value="RootCA.PK" style="rounded=0;whiteSpace=wrap;html=1;" vertex="1" parent="jqnuNvzaE54T31BsbfV6-38">
          <mxGeometry y="90" width="120" height="30" as="geometry" />
        </mxCell>
        <mxCell id="jqnuNvzaE54T31BsbfV6-39" value="" style="group" vertex="1" connectable="0" parent="1">
          <mxGeometry x="90" y="260" width="120" height="120" as="geometry" />
        </mxCell>
        <mxCell id="jqnuNvzaE54T31BsbfV6-40" value="&lt;b&gt;Intermediate CA&lt;/b&gt;" style="rounded=0;whiteSpace=wrap;html=1;" vertex="1" parent="jqnuNvzaE54T31BsbfV6-39">
          <mxGeometry width="120" height="60" as="geometry" />
        </mxCell>
        <mxCell id="jqnuNvzaE54T31BsbfV6-41" value="ICA.SK" style="rounded=0;whiteSpace=wrap;html=1;" vertex="1" parent="jqnuNvzaE54T31BsbfV6-39">
          <mxGeometry y="60" width="120" height="30" as="geometry" />
        </mxCell>
        <mxCell id="jqnuNvzaE54T31BsbfV6-42" value="ICA.PK" style="rounded=0;whiteSpace=wrap;html=1;" vertex="1" parent="jqnuNvzaE54T31BsbfV6-39">
          <mxGeometry y="90" width="120" height="30" as="geometry" />
        </mxCell>
        <mxCell id="jqnuNvzaE54T31BsbfV6-44" value="" style="endArrow=classic;html=1;rounded=0;exitX=0;exitY=0.5;exitDx=0;exitDy=0;entryX=1;entryY=0.5;entryDx=0;entryDy=0;edgeStyle=orthogonalEdgeStyle;" edge="1" parent="1" source="jqnuNvzaE54T31BsbfV6-3" target="jqnuNvzaE54T31BsbfV6-27">
          <mxGeometry width="50" height="50" relative="1" as="geometry">
            <mxPoint x="540" y="375" as="sourcePoint" />
            <mxPoint x="530" y="595" as="targetPoint" />
            <Array as="points">
              <mxPoint x="350" y="365" />
              <mxPoint x="350" y="565" />
            </Array>
          </mxGeometry>
        </mxCell>
        <mxCell id="jqnuNvzaE54T31BsbfV6-45" value="Embed And Sign" style="edgeLabel;html=1;align=center;verticalAlign=middle;resizable=0;points=[];" vertex="1" connectable="0" parent="jqnuNvzaE54T31BsbfV6-44">
          <mxGeometry x="-0.0207" y="2" relative="1" as="geometry">
            <mxPoint x="18" y="-71" as="offset" />
          </mxGeometry>
        </mxCell>
        <mxCell id="jqnuNvzaE54T31BsbfV6-47" value="" style="group" vertex="1" connectable="0" parent="1">
          <mxGeometry x="90" y="770" width="120" height="120" as="geometry" />
        </mxCell>
        <mxCell id="jqnuNvzaE54T31BsbfV6-48" value="&lt;b&gt;RC &lt;br&gt;Certificate&lt;/b&gt;" style="rounded=0;whiteSpace=wrap;html=1;" vertex="1" parent="jqnuNvzaE54T31BsbfV6-47">
          <mxGeometry width="120" height="60" as="geometry" />
        </mxCell>
        <mxCell id="jqnuNvzaE54T31BsbfV6-49" value="Root Signature" style="rounded=0;whiteSpace=wrap;html=1;" vertex="1" parent="jqnuNvzaE54T31BsbfV6-47">
          <mxGeometry y="90" width="120" height="30" as="geometry" />
        </mxCell>
        <mxCell id="jqnuNvzaE54T31BsbfV6-50" value="RC.PK" style="rounded=0;whiteSpace=wrap;html=1;" vertex="1" parent="jqnuNvzaE54T31BsbfV6-47">
          <mxGeometry y="60" width="120" height="30" as="geometry" />
        </mxCell>
        <mxCell id="jqnuNvzaE54T31BsbfV6-51" value="" style="group" vertex="1" connectable="0" parent="1">
          <mxGeometry x="-80" y="770" width="120" height="120" as="geometry" />
        </mxCell>
        <mxCell id="jqnuNvzaE54T31BsbfV6-52" value="&lt;b&gt;RC&lt;br&gt;&lt;/b&gt;" style="rounded=0;whiteSpace=wrap;html=1;" vertex="1" parent="jqnuNvzaE54T31BsbfV6-51">
          <mxGeometry width="120" height="60" as="geometry" />
        </mxCell>
        <mxCell id="jqnuNvzaE54T31BsbfV6-53" value="RC.PK" style="rounded=0;whiteSpace=wrap;html=1;" vertex="1" parent="jqnuNvzaE54T31BsbfV6-51">
          <mxGeometry y="90" width="120" height="30" as="geometry" />
        </mxCell>
        <mxCell id="jqnuNvzaE54T31BsbfV6-54" value="RC.SK" style="rounded=0;whiteSpace=wrap;html=1;" vertex="1" parent="jqnuNvzaE54T31BsbfV6-51">
          <mxGeometry y="60" width="120" height="30" as="geometry" />
        </mxCell>
        <mxCell id="jqnuNvzaE54T31BsbfV6-55" style="edgeStyle=orthogonalEdgeStyle;rounded=0;orthogonalLoop=1;jettySize=auto;html=1;entryX=0;entryY=0.5;entryDx=0;entryDy=0;" edge="1" parent="1" source="jqnuNvzaE54T31BsbfV6-53" target="jqnuNvzaE54T31BsbfV6-50">
          <mxGeometry relative="1" as="geometry" />
        </mxCell>
        <mxCell id="jqnuNvzaE54T31BsbfV6-56" value="Embed" style="edgeLabel;html=1;align=center;verticalAlign=middle;resizable=0;points=[];" vertex="1" connectable="0" parent="jqnuNvzaE54T31BsbfV6-55">
          <mxGeometry x="-0.4821" relative="1" as="geometry">
            <mxPoint y="15" as="offset" />
          </mxGeometry>
        </mxCell>
        <mxCell id="jqnuNvzaE54T31BsbfV6-57" style="edgeStyle=orthogonalEdgeStyle;rounded=0;orthogonalLoop=1;jettySize=auto;html=1;exitX=1;exitY=0.5;exitDx=0;exitDy=0;entryX=1;entryY=0.5;entryDx=0;entryDy=0;" edge="1" parent="1" source="jqnuNvzaE54T31BsbfV6-41" target="jqnuNvzaE54T31BsbfV6-49">
          <mxGeometry relative="1" as="geometry">
            <Array as="points">
              <mxPoint x="290" y="335" />
              <mxPoint x="290" y="875" />
            </Array>
          </mxGeometry>
        </mxCell>
        <mxCell id="jqnuNvzaE54T31BsbfV6-58" value="Sign" style="edgeLabel;html=1;align=center;verticalAlign=middle;resizable=0;points=[];" vertex="1" connectable="0" parent="jqnuNvzaE54T31BsbfV6-57">
          <mxGeometry x="-0.4841" relative="1" as="geometry">
            <mxPoint as="offset" />
          </mxGeometry>
        </mxCell>
      </root>
    </mxGraphModel>
  </diagram>
</mxfile>
